<svg id="visual" viewBox="0 0 1600 900" width="1600" height="900" xmlns="http://www.w3.org/2000/svg" xmlns:xlink="http://www.w3.org/1999/xlink" version="1.1"><path d="M0 467L29.7 460.8C59.3 454.7 118.7 442.3 178 452.8C237.3 463.3 296.7 496.7 355.8 492.7C415 488.7 474 447.3 533.2 442C592.3 436.7 651.7 467.3 711 489.2C770.3 511 829.7 524 889 518.3C948.3 512.7 1007.7 488.3 1066.8 474C1126 459.7 1185 455.3 1244.2 452C1303.3 448.7 1362.7 446.3 1422 432.7C1481.3 419 1540.7 394 1570.3 381.5L1600 369L1600 0L1570.3 0C1540.7 0 1481.3 0 1422 0C1362.7 0 1303.3 0 1244.2 0C1185 0 1126 0 1066.8 0C1007.7 0 948.3 0 889 0C829.7 0 770.3 0 711 0C651.7 0 592.3 0 533.2 0C474 0 415 0 355.8 0C296.7 0 237.3 0 178 0C118.7 0 59.3 0 29.7 0L0 0Z" fill="#17585e" stroke-linecap="round" stroke-linejoin="miter"></path></svg>